<mxfile host="app.diagrams.net" modified="2021-11-15T20:45:19.567Z" agent="5.0 (Windows NT 10.0; Win64; x64) AppleWebKit/537.36 (KHTML, like Gecko) Chrome/95.0.4638.69 Safari/537.36" etag="FXdp_bCwcM1AAdj7nf_z" version="15.6.8" type="github">
  <diagram id="EdOOgvfuR42moxfxVEDF" name="Page-1">
    <mxGraphModel dx="1304" dy="462" grid="1" gridSize="10" guides="1" tooltips="1" connect="1" arrows="1" fold="1" page="1" pageScale="1" pageWidth="827" pageHeight="1169" math="0" shadow="0">
      <root>
        <mxCell id="0" />
        <mxCell id="1" parent="0" />
        <mxCell id="6RpLGvsDzucfuYrlqXTp-7" value="" style="edgeStyle=orthogonalEdgeStyle;rounded=0;orthogonalLoop=1;jettySize=auto;html=1;" edge="1" parent="1" source="6RpLGvsDzucfuYrlqXTp-1" target="6RpLGvsDzucfuYrlqXTp-2">
          <mxGeometry relative="1" as="geometry" />
        </mxCell>
        <mxCell id="6RpLGvsDzucfuYrlqXTp-1" value="IDLE&lt;br&gt;Wait a minute" style="ellipse;whiteSpace=wrap;html=1;aspect=fixed;" vertex="1" parent="1">
          <mxGeometry x="110" y="300" width="100" height="100" as="geometry" />
        </mxCell>
        <mxCell id="6RpLGvsDzucfuYrlqXTp-8" value="" style="edgeStyle=orthogonalEdgeStyle;rounded=0;orthogonalLoop=1;jettySize=auto;html=1;" edge="1" parent="1" source="6RpLGvsDzucfuYrlqXTp-2" target="6RpLGvsDzucfuYrlqXTp-3">
          <mxGeometry relative="1" as="geometry" />
        </mxCell>
        <mxCell id="6RpLGvsDzucfuYrlqXTp-2" value="&lt;b&gt;HUMIDITY&lt;/b&gt;&lt;br&gt;Get humidity" style="ellipse;whiteSpace=wrap;html=1;aspect=fixed;" vertex="1" parent="1">
          <mxGeometry x="250" y="300" width="100" height="100" as="geometry" />
        </mxCell>
        <mxCell id="6RpLGvsDzucfuYrlqXTp-9" value="" style="edgeStyle=orthogonalEdgeStyle;rounded=0;orthogonalLoop=1;jettySize=auto;html=1;" edge="1" parent="1" source="6RpLGvsDzucfuYrlqXTp-3" target="6RpLGvsDzucfuYrlqXTp-4">
          <mxGeometry relative="1" as="geometry" />
        </mxCell>
        <mxCell id="6RpLGvsDzucfuYrlqXTp-3" value="&lt;b&gt;TEMPERATURE&lt;/b&gt;&lt;br&gt;Get temperature" style="ellipse;whiteSpace=wrap;html=1;aspect=fixed;" vertex="1" parent="1">
          <mxGeometry x="380" y="300" width="100" height="100" as="geometry" />
        </mxCell>
        <mxCell id="6RpLGvsDzucfuYrlqXTp-4" value="&lt;b&gt;LCD&lt;/b&gt;&lt;br&gt;DIsplay time and values" style="ellipse;whiteSpace=wrap;html=1;aspect=fixed;" vertex="1" parent="1">
          <mxGeometry x="520" y="300" width="100" height="100" as="geometry" />
        </mxCell>
        <mxCell id="6RpLGvsDzucfuYrlqXTp-5" value="&lt;b&gt;LED&lt;/b&gt;&lt;br&gt;Blinking" style="ellipse;whiteSpace=wrap;html=1;aspect=fixed;" vertex="1" parent="1">
          <mxGeometry x="330" y="150" width="100" height="100" as="geometry" />
        </mxCell>
        <mxCell id="6RpLGvsDzucfuYrlqXTp-10" value="" style="curved=1;endArrow=classic;html=1;rounded=0;entryX=1;entryY=0.5;entryDx=0;entryDy=0;exitX=1;exitY=0.5;exitDx=0;exitDy=0;" edge="1" parent="1" source="6RpLGvsDzucfuYrlqXTp-4" target="6RpLGvsDzucfuYrlqXTp-5">
          <mxGeometry width="50" height="50" relative="1" as="geometry">
            <mxPoint x="580" y="350" as="sourcePoint" />
            <mxPoint x="630" y="300" as="targetPoint" />
            <Array as="points">
              <mxPoint x="630" y="350" />
              <mxPoint x="630" y="190" />
            </Array>
          </mxGeometry>
        </mxCell>
        <mxCell id="6RpLGvsDzucfuYrlqXTp-12" value="Temperature too high" style="text;html=1;align=center;verticalAlign=middle;resizable=0;points=[];autosize=1;strokeColor=none;fillColor=none;" vertex="1" parent="1">
          <mxGeometry x="610" y="200" width="130" height="20" as="geometry" />
        </mxCell>
        <mxCell id="6RpLGvsDzucfuYrlqXTp-13" value="LED&lt;br&gt;Stop blinking" style="ellipse;whiteSpace=wrap;html=1;aspect=fixed;" vertex="1" parent="1">
          <mxGeometry x="340" y="450" width="100" height="100" as="geometry" />
        </mxCell>
        <mxCell id="6RpLGvsDzucfuYrlqXTp-14" value="" style="curved=1;endArrow=classic;html=1;rounded=0;exitX=1;exitY=0.5;exitDx=0;exitDy=0;entryX=1;entryY=0.5;entryDx=0;entryDy=0;" edge="1" parent="1" source="6RpLGvsDzucfuYrlqXTp-4" target="6RpLGvsDzucfuYrlqXTp-13">
          <mxGeometry width="50" height="50" relative="1" as="geometry">
            <mxPoint x="380" y="410" as="sourcePoint" />
            <mxPoint x="430" y="360" as="targetPoint" />
            <Array as="points">
              <mxPoint x="650" y="510" />
            </Array>
          </mxGeometry>
        </mxCell>
        <mxCell id="6RpLGvsDzucfuYrlqXTp-15" value="Temperature not too high" style="text;html=1;align=center;verticalAlign=middle;resizable=0;points=[];autosize=1;strokeColor=none;fillColor=none;" vertex="1" parent="1">
          <mxGeometry x="555" y="500" width="150" height="20" as="geometry" />
        </mxCell>
        <mxCell id="6RpLGvsDzucfuYrlqXTp-17" value="" style="curved=1;endArrow=classic;html=1;rounded=0;exitX=0;exitY=0.5;exitDx=0;exitDy=0;entryX=0;entryY=0.5;entryDx=0;entryDy=0;" edge="1" parent="1" source="6RpLGvsDzucfuYrlqXTp-13" target="6RpLGvsDzucfuYrlqXTp-1">
          <mxGeometry width="50" height="50" relative="1" as="geometry">
            <mxPoint x="240" y="510" as="sourcePoint" />
            <mxPoint x="290" y="460" as="targetPoint" />
            <Array as="points">
              <mxPoint x="290" y="510" />
              <mxPoint x="-20" y="470" />
            </Array>
          </mxGeometry>
        </mxCell>
        <mxCell id="6RpLGvsDzucfuYrlqXTp-18" value="" style="curved=1;endArrow=classic;html=1;rounded=0;exitX=0;exitY=0.5;exitDx=0;exitDy=0;entryX=0;entryY=0.5;entryDx=0;entryDy=0;" edge="1" parent="1" source="6RpLGvsDzucfuYrlqXTp-5" target="6RpLGvsDzucfuYrlqXTp-1">
          <mxGeometry width="50" height="50" relative="1" as="geometry">
            <mxPoint x="210" y="240" as="sourcePoint" />
            <mxPoint x="260" y="190" as="targetPoint" />
            <Array as="points">
              <mxPoint x="180" y="180" />
              <mxPoint x="90" y="190" />
            </Array>
          </mxGeometry>
        </mxCell>
      </root>
    </mxGraphModel>
  </diagram>
</mxfile>
